<svg xmlns="http://www.w3.org/2000/svg" width="14.958" height="14.616" viewBox="0 0 14.958 14.616">
  <defs>
    <style>
      .cls-1 {
        fill: none;
      }

      .cls-2 {
        fill: #3a2c6d;
      }
    </style>
  </defs>
  <g id="instagram-sketched" transform="translate(0 0)">
    <path id="Path_1157" data-name="Path 1157" class="cls-1" d="M13.838,2.518A2.563,2.563,0,0,0,11.561.241a42.524,42.524,0,0,0-9.043,0A2.564,2.564,0,0,0,.241,2.518a42.526,42.526,0,0,0,0,9.043,2.564,2.564,0,0,0,2.277,2.277,42.526,42.526,0,0,0,9.043,0,2.564,2.564,0,0,0,2.277-2.277A42.527,42.527,0,0,0,13.838,2.518Zm0,0" transform="translate(0.233 0.312)"/>
    <path id="Path_1158" data-name="Path 1158" class="cls-1" d="M41.114,31.069a2.275,2.275,0,0,0-2.021-2.021,37.749,37.749,0,0,0-8.024,0,2.275,2.275,0,0,0-2.021,2.021,37.751,37.751,0,0,0,0,8.024,2.275,2.275,0,0,0,2.021,2.021,37.735,37.735,0,0,0,8.024,0,2.275,2.275,0,0,0,2.021-2.021A37.736,37.736,0,0,0,41.114,31.069Zm0,0" transform="translate(-27.808 -27.729)"/>
    <g id="Group_668" data-name="Group 668" transform="translate(0 0)">
      <path id="Path_1166" data-name="Path 1166" class="cls-2" d="M177.307,174a3.315,3.315,0,1,0,3.315,3.315A3.315,3.315,0,0,0,177.307,174Zm0,5.489a2.174,2.174,0,1,1,2.174-2.174A2.174,2.174,0,0,1,177.307,179.485Zm0,0" transform="translate(-170.012 -170.025)"/>
      <path id="Path_1167" data-name="Path 1167" class="cls-2" d="M324.862,151.531a.789.789,0,1,1-.789-.789A.789.789,0,0,1,324.862,151.531Zm0,0" transform="translate(-313.269 -147.712)"/>
      <path id="Path_14205" data-name="Path 14205" class="cls-2" d="M93.586,99.244c0-1.329.88-3.131,2.637-3.191,2.115-.073,7.019-.076,9.134,0,2.661-.24,3.2,2.185,3.137,4.308.064,2.031.064,4.328,0,6.359-.06,1.913-2.2,3.766-4.11,3.835-2.115.076-4.7.079-6.811,0a4.457,4.457,0,0,1-3.988-3.835c-.011-.166.024-.313,0-.478C93.586,104.546,93.614,99.713,93.586,99.244Zm7.385,9.262c.968,0,1.937.029,2.9-.007a2.362,2.362,0,0,0,2.483-2.475q.066-2.83,0-5.663a2.347,2.347,0,0,0-2.483-2.472q-2.884-.061-5.771,0a2.333,2.333,0,0,0-2.479,2.436q-.078,2.866,0,5.735A2.348,2.348,0,0,0,98.1,108.5C99.058,108.534,100.015,108.506,100.971,108.506Zm0,0" transform="translate(-93.584 -95.997)"/>
    </g>
  </g>
</svg>
