<svg id="Group_8991" data-name="Group 8991" xmlns="http://www.w3.org/2000/svg" width="23.565" height="23.565" viewBox="0 0 23.565 23.565">
  <defs>
    <style>
      .cls-1 {
        fill: #fff;
      }

      .cls-2 {
        fill: #3a2b6c;
      }
    </style>
  </defs>
  <g id="Group_8700" data-name="Group 8700">
    <circle id="Ellipse_1667" data-name="Ellipse 1667" class="cls-1" cx="11.783" cy="11.783" r="11.783"/>
    <g id="Group_8698" data-name="Group 8698" transform="translate(3.703 4.933)">
      <circle id="Ellipse_1666" data-name="Ellipse 1666" class="cls-2" cx="1.916" cy="1.916" r="1.916"/>
      <path id="Path_14203" data-name="Path 14203" class="cls-2" d="M-14660.928,8847.157h2.823v8.851h-2.823Z" transform="translate(14661.832 -8842.189)"/>
      <path id="Path_14204" data-name="Path 14204" class="cls-2" d="M-14652.295,8846.834h2.779v1.293a3.015,3.015,0,0,1,3.035-1.623c1.84.074,2.828.678,2.936,5.1.014.65.033,3.529,0,4.127-.287.014-2.227.039-2.725,0-.023-1.121-.021-2.221,0-3.365.039-1.863-.043-3.375-1.482-3.342-2.281.492-1.318,1.482-1.764,6.707-1.393.047-2.779,0-2.779,0Z" transform="translate(14657.58 -8841.935)"/>
    </g>
  </g>
</svg>
