<svg xmlns="http://www.w3.org/2000/svg" width="73" height="75" viewBox="0 0 73 75">
  <defs>
    <style>
      .cls-1 {
        fill: #d4c1ec;
        opacity: 0.851;
      }

      .cls-2 {
        fill: #9f1baa;
      }
    </style>
  </defs>
  <g id="Group_8462" data-name="Group 8462" transform="translate(-399 -647)">
    <path id="Path_14083" data-name="Path 14083" class="cls-1" d="M36.5,0C56.658,0,73,16.789,73,37.5S56.658,75,36.5,75,0,58.211,0,37.5,16.342,0,36.5,0Z" transform="translate(399 647)"/>
    <path id="Icon_awesome-question" data-name="Icon awesome-question" class="cls-2" d="M16.52,0C9.86,0,5.547,2.729,2.16,7.6a2,2,0,0,0,.432,2.743l3.6,2.729a2,2,0,0,0,2.775-.346C11.056,10.1,12.606,8.6,15.871,8.6c2.567,0,5.742,1.652,5.742,4.141,0,1.882-1.553,2.848-4.088,4.269-2.956,1.657-6.867,3.719-6.867,8.878V26.7a2,2,0,0,0,2,2h6.047a2,2,0,0,0,2-2v-.482c0-3.576,10.452-3.725,10.452-13.4C31.163,5.528,23.6,0,16.52,0Zm-.836,31.161a5.78,5.78,0,1,0,5.78,5.78A5.786,5.786,0,0,0,15.684,31.161Z" transform="translate(419.199 663)"/>
  </g>
</svg>
